<?xml version="1.0" standalone="no"?><!DOCTYPE svg PUBLIC "-//W3C//DTD SVG 1.1//EN" "http://www.w3.org/Graphics/SVG/1.1/DTD/svg11.dtd"><svg t="1657770331386" class="icon" viewBox="0 0 1024 1024" version="1.1" xmlns="http://www.w3.org/2000/svg" p-id="114341" xmlns:xlink="http://www.w3.org/1999/xlink" width="64" height="64"><defs><style type="text/css"></style></defs><path d="M50.389333 512C90.496 293.546667 281.941333 128 512 128c230.058667 0 421.461333 165.546667 461.610667 384-40.106667 218.453333-231.552 384-461.610667 384-230.058667 0-421.461333-165.546667-461.610667-384zM512 725.333333a213.333333 213.333333 0 1 0 0-426.666666 213.333333 213.333333 0 0 0 0 426.666666z m0-85.333333a128 128 0 1 1 0-256 128 128 0 0 1 0 256z" p-id="114342"></path></svg>