<?xml version="1.0" standalone="no"?><!DOCTYPE svg PUBLIC "-//W3C//DTD SVG 1.1//EN" "http://www.w3.org/Graphics/SVG/1.1/DTD/svg11.dtd"><svg t="1657770279771" class="icon" viewBox="0 0 1024 1024" version="1.1" xmlns="http://www.w3.org/2000/svg" p-id="113704" xmlns:xlink="http://www.w3.org/1999/xlink" width="64" height="64"><defs><style type="text/css"></style></defs><path d="M192.853333 253.184L59.434667 119.808l60.373333-60.373333 844.757333 844.8-60.373333 60.330666-141.226667-141.226666A467.157333 467.157333 0 0 1 512 896c-230.058667 0-421.461333-165.546667-461.610667-384a468.565333 468.565333 0 0 1 142.506667-258.816z m436.778667 436.821333l-62.464-62.464a128 128 0 0 1-170.709333-170.709333L333.994667 394.368a213.333333 213.333333 0 0 0 295.637333 295.637333zM340.224 160.426667C393.429333 139.52 451.413333 128 512 128c230.058667 0 421.461333 165.546667 461.610667 384a467.072 467.072 0 0 1-85.845334 195.925333l-164.693333-164.693333a213.333333 213.333333 0 0 0-242.346667-242.346667L340.224 160.469333z" p-id="113705"></path></svg>