<?xml version="1.0" standalone="no"?><!DOCTYPE svg PUBLIC "-//W3C//DTD SVG 1.1//EN" "http://www.w3.org/Graphics/SVG/1.1/DTD/svg11.dtd"><svg t="1658225986489" class="icon" viewBox="0 0 1024 1024" version="1.1" xmlns="http://www.w3.org/2000/svg" p-id="160452" xmlns:xlink="http://www.w3.org/1999/xlink" width="64" height="64"><defs><style type="text/css"></style></defs><path d="M853.333333 853.333333a42.666667 42.666667 0 0 1-42.666666 42.666667H213.333333a42.666667 42.666667 0 0 1-42.666666-42.666667v-384H42.666667l440.618666-400.554666a42.666667 42.666667 0 0 1 57.429334 0L981.333333 469.333333h-128v384zM298.666667 469.333333v85.333334a213.333333 213.333333 0 0 1 213.333333 213.333333h85.333333a298.666667 298.666667 0 0 0-298.666666-298.666667z m0 170.666667v128h128a128 128 0 0 0-128-128z" p-id="160453"></path></svg>