<?xml version="1.0" standalone="no"?><!DOCTYPE svg PUBLIC "-//W3C//DTD SVG 1.1//EN" "http://www.w3.org/Graphics/SVG/1.1/DTD/svg11.dtd"><svg t="1657764558940" class="icon" viewBox="0 0 1024 1024" version="1.1" xmlns="http://www.w3.org/2000/svg" p-id="108649" xmlns:xlink="http://www.w3.org/1999/xlink" width="64" height="64"><defs><style type="text/css"></style></defs><path d="M424.704 94.293333a426.24 426.24 0 0 1 174.549333-0.085333A170.368 170.368 0 0 0 682.666667 216.32a170.368 170.368 0 0 0 147.498666 11.136A426.24 426.24 0 0 1 917.333333 378.709333 170.368 170.368 0 0 0 853.333333 512a170.24 170.24 0 0 0 64.085334 133.290667 428.501333 428.501333 0 0 1-87.296 151.168 170.368 170.368 0 0 0-147.456 11.136 170.368 170.368 0 0 0-83.370667 122.026666 426.24 426.24 0 0 1-174.549333 0.170667A170.368 170.368 0 0 0 341.333333 807.552a170.368 170.368 0 0 0-147.498666-11.093333A426.24 426.24 0 0 1 106.666667 645.162667 170.368 170.368 0 0 0 170.666667 511.957333a170.368 170.368 0 0 0-64.085334-133.290666 428.501333 428.501333 0 0 1 87.296-151.168A170.368 170.368 0 0 0 341.333333 216.362667a170.368 170.368 0 0 0 83.370667-122.026667zM512 640a128 128 0 1 0 0-256 128 128 0 0 0 0 256z" p-id="108650"></path></svg>