<?xml version="1.0" standalone="no"?><!DOCTYPE svg PUBLIC "-//W3C//DTD SVG 1.1//EN" "http://www.w3.org/Graphics/SVG/1.1/DTD/svg11.dtd"><svg t="1657607893434" class="icon" viewBox="0 0 1024 1024" version="1.1" xmlns="http://www.w3.org/2000/svg" p-id="109271" xmlns:xlink="http://www.w3.org/1999/xlink" width="64" height="64"><defs><style type="text/css"></style></defs><path d="M512 768a256 256 0 0 1-256-256c0-42.666667 10.666667-84.053333 29.866667-119.466667L223.573333 330.24A338.346667 338.346667 0 0 0 170.666667 512a341.333333 341.333333 0 0 0 341.333333 341.333333v128l170.666667-170.666666-170.666667-170.666667m0-469.333333V42.666667L341.333333 213.333333l170.666667 170.666667V256a256 256 0 0 1 256 256c0 42.666667-10.666667 84.053333-29.866667 119.466667l62.293334 62.293333A338.346667 338.346667 0 0 0 853.333333 512a341.333333 341.333333 0 0 0-341.333333-341.333333z" fill="" p-id="109272"></path></svg>