<?xml version="1.0" standalone="no"?><!DOCTYPE svg PUBLIC "-//W3C//DTD SVG 1.1//EN" "http://www.w3.org/Graphics/SVG/1.1/DTD/svg11.dtd"><svg t="1658227555403" class="icon" viewBox="0 0 1024 1024" version="1.1" xmlns="http://www.w3.org/2000/svg" p-id="190696" width="64" height="64" xmlns:xlink="http://www.w3.org/1999/xlink"><defs><style type="text/css"></style></defs><path d="M469.333333 597.333333v-128h85.333334v128h213.333333a42.666667 42.666667 0 0 1 42.666667 42.666667v256a42.666667 42.666667 0 0 1-42.666667 42.666667H256a42.666667 42.666667 0 0 1-42.666667-42.666667v-256a42.666667 42.666667 0 0 1 42.666667-42.666667h213.333333zM107.093333 377.045333C163.626667 207.530667 323.584 85.333333 512 85.333333s348.416 122.197333 404.906667 291.712l-80.981334 26.965334a341.461333 341.461333 0 0 0-647.850666 0l-80.938667-26.965334z m161.962667 53.973334a256.128 256.128 0 0 1 485.888 0l-80.981333 27.008a170.752 170.752 0 0 0-323.925334 0l-80.981333-27.008z" p-id="190697" fill="#1989fa"></path></svg>